<?xml version="1.0" encoding="utf-8"?>
<!-- Generator: Adobe Illustrator 16.0.0, SVG Export Plug-In . SVG Version: 6.00 Build 0)  -->
<!DOCTYPE svg PUBLIC "-//W3C//DTD SVG 1.1//EN" "http://www.w3.org/Graphics/SVG/1.1/DTD/svg11.dtd">
<svg version="1.1" id="Layer_1" xmlns="http://www.w3.org/2000/svg" xmlns:xlink="http://www.w3.org/1999/xlink" x="0px" y="0px"
	 width="70px" height="70px" viewBox="0 0 70 70" enable-background="new 0 0 70 70" xml:space="preserve">
<g>
	<path d="M47.144,56.686l-9.561,4.35v-24.75c0-1.104-0.896-2-2-2s-2,0.896-2,2v24.381l-8.749-3.98
		c-1.005-0.457-2.191-0.014-2.648,0.992c-0.458,1.005-0.014,2.191,0.992,2.648l11.839,5.387c0.204,0.109,0.426,0.182,0.653,0.216
		c0.113,0.021,0.228,0.03,0.342,0.03c0.354,0,0.704-0.096,1.014-0.275L48.8,60.326c1.006-0.457,1.449-1.644,0.992-2.648
		C49.335,56.671,48.146,56.228,47.144,56.686z"/>
	<path d="M55.583,23.645v-0.184c0-10.708-8.288-19.42-18.964-19.42c-9.019,0-16.33,6.184-18.401,14.916
		C9.673,19.83,2.989,26.954,2.989,35.772c0,9.463,7.626,16.811,17,16.811h8.439c1.104,0,2-0.896,2-2s-0.896-2-2-2h-8.439
		c-7.168,0-13-5.559-13-12.817c0-7.214,5.832-12.736,13-12.736c4.417,0,8.365,2.311,10.831,6.359
		c0.574,0.942,1.805,1.22,2.749,0.645c0.943-0.575,1.241-1.849,0.667-2.792c-2.754-4.521-7.151-7.52-12.045-8.218
		c1.931-6.473,7.611-10.982,14.455-10.982c8.613,0,14.938,6.773,14.938,15.42v1.948c0,1.056,0.82,1.93,1.875,1.996
		c5.543,0.351,9.125,4.467,9.125,10.487v0.352c0,5.486-2.273,10.339-8.236,10.339H42.429c-1.105,0-2,0.896-2,2s0.895,2,2,2h11.918
		c7.58,0,12.236-5.623,12.236-14.339v-0.352C66.583,30.401,62.583,24.888,55.583,23.645z"/>
	<path d="M49.052,22.961c0,0.553,0.447,1,1,1s1-0.447,1-1c0-6.647-4.727-12.289-11.236-13.415c-0.541-0.091-1.063,0.271-1.156,0.815
		c-0.093,0.544,0.271,1.062,0.816,1.155C45.024,12.476,49.052,17.289,49.052,22.961z"/>
	<path d="M34.792,9.62c-1.068,0.215-2.11,0.56-3.096,1.024c-0.499,0.235-0.713,0.831-0.478,1.331c0.17,0.361,0.53,0.573,0.905,0.573
		c0.143,0,0.288-0.03,0.426-0.096c0.839-0.396,1.727-0.688,2.637-0.872c0.542-0.109,0.892-0.637,0.783-1.178
		C35.86,9.862,35.33,9.51,34.792,9.62z"/>
</g>
</svg>
